<svg xmlns="http://www.w3.org/2000/svg" width="64" height="64" viewBox="0 0 64 64" fill="none">
  <defs>
    <linearGradient id="steel" x1="11" y1="6" x2="42" y2="23" gradientUnits="userSpaceOnUse"><stop stop-color="#F7FBFF"/><stop offset=".45" stop-color="#9BC8EE"/><stop offset="1" stop-color="#456A91"/></linearGradient>
    <linearGradient id="wood" x1="28" y1="20" x2="45" y2="53" gradientUnits="userSpaceOnUse"><stop stop-color="#F1C27D"/><stop offset="1" stop-color="#A76539"/></linearGradient>
    <filter id="shadow" x="4" y="2" width="58" height="60" color-interpolation-filters="sRGB"><feDropShadow dx="0" dy="2" stdDeviation="2" flood-color="#071426" flood-opacity=".45"/></filter>
  </defs>
  <g filter="url(#shadow)" transform="rotate(-12 31 30)">
    <path d="M27 19 42 34 23 54c-2 2-5 2-7 0s-2-5 0-7l11-28Z" fill="url(#wood)" stroke="#5D3825" stroke-width="2.5" stroke-linejoin="round"/>
    <path d="m11 8 28 1 10 10-8 9-11-5-23-3 4-12Z" fill="url(#steel)" stroke="#244464" stroke-width="2.5" stroke-linejoin="round"/>
    <path d="m9 17 22 2 8 5-6 6-13-5-13-1 2-7Z" fill="#D9ECFC" opacity=".9"/>
    <path d="m35 10 4 1 9 8-4 4-10-9 1-4Z" fill="#fff" opacity=".65"/>
    <path d="m18 48 5 4M22 43l5 4" stroke="#F8D3A0" stroke-width="2" stroke-linecap="round"/>
  </g>
  <circle cx="8" cy="8" r="3" fill="#fff" stroke="#1E293B" stroke-width="2"/>
</svg>
